<svg id="Layer_1" data-name="Layer 1" xmlns="http://www.w3.org/2000/svg" viewBox="0 0 804 736"><defs><style>.cls-1{fill:#367f57;}.cls-1,.cls-2,.cls-3{stroke:#010101;stroke-width:0.85px;}.cls-2{fill:#6ec497;}.cls-3{fill:#cde9db;}.cls-4{fill:#ed2224;}.cls-5{fill:none;stroke:#4e79bc;stroke-width:4.78px;stroke-dasharray:11.48 7.65;}.cls-6{fill:#4e79bc;}.cls-7{fill:#6191cc;}</style></defs><g id="model"><path id="path5" class="cls-1" d="M196.1,190.36l3.19.39,3.17.46,3.16.52,3.15.59,3.14.65,3.12.71,3.11.78,3.09.84,3.07.91,3.06,1,3,1,3,1.09,3,1.15,3,1.22,2.94,1.27,2.92,1.33,2.89,1.39L251,207.1l2.83,1.51,2.79,1.56,2.77,1.61,2.74,1.67,2.7,1.72,2.67,1.78,2.63,1.82,2.6,1.88,2.56,1.93,2.52,2v-26l-.16-3.3-.48-3.26-.8-3.2-1.11-3.11-1.41-3-1.7-2.83-2-2.65-2.21-2.44-2.45-2.22-2.65-2L260,168.9l-3-1.42-3.1-1.11-3.2-.8-3.27-.48-3.29-.16H110.78l-3.3.16-3.26.48-3.2.8-3.11,1.11-3,1.42-2.83,1.69-2.65,2L87,174.78l-2.22,2.44-2,2.65-1.69,2.83-1.42,3-1.11,3.11-.8,3.2-.48,3.26-.16,3.3v26.1l2.57-2,2.6-2,2.64-1.9,2.68-1.86,2.72-1.79,2.75-1.75,2.79-1.69,2.82-1.63,2.85-1.57,2.89-1.52,2.91-1.46,2.94-1.4,3-1.33,3-1.28,3-1.22,3-1.16,3.07-1.09,3.09-1,3.11-1,3.13-.9,3.15-.84,3.17-.77,3.18-.71,3.19-.64,3.21-.58,3.21-.52,3.23-.44,3.24-.38,3.24-.32,3.25-.25,3.25-.18,3.26-.12,3.25,0h3.26l3.26.08,3.25.14,3.26.2,3.24.27,3.24.33"/><path id="path857" class="cls-1" d="M177.47,434.84l-3.28.09-3.27.28-3.24.48-3.22.66-3.16.84-3.12,1-3.05,1.22-3,1.38-2.88,1.56-2.79,1.73L143.8,446l-2.57,2-2.45,2.18-2.32,2.32L134.28,455l-2,2.57-1.88,2.69L128.63,463l-1.56,2.88-1.38,3-1.22,3.05-1,3.12-.84,3.17-.67,3.21-.47,3.24-.28,3.27-.09,3.28.09,3.28.28,3.27.47,3.24.67,3.22.84,3.17,1,3.11,1.22,3,1.38,3,1.56,2.89,1.73,2.79,1.88,2.68,2,2.57,2.18,2.45,2.32,2.32,2.45,2.19,2.57,2,2.69,1.89,2.79,1.72,2.88,1.56,3,1.39,3.05,1.21,3.12,1,3.16.85,3.22.66,3.24.47,3.27.28,3.28.1,3.28-.1,3.27-.28,3.24-.47,3.22-.66,3.17-.85,3.11-1,3.05-1.21,3-1.39,2.89-1.56,2.79-1.72,2.68-1.89,2.57-2,2.45-2.19,2.32-2.32,2.18-2.45,2-2.57,1.88-2.68,1.73-2.79,1.56-2.89,1.39-3,1.21-3,1-3.11.85-3.17L233,501l.47-3.24.28-3.27.1-3.28-.1-3.28-.28-3.27-.47-3.24-.66-3.21-.85-3.17-1-3.12-1.21-3.05-1.39-3L226.31,463l-1.73-2.79-1.88-2.69-2-2.57-2.18-2.45-2.32-2.32L213.71,448l-2.57-2-2.68-1.88-2.79-1.73-2.89-1.56-3-1.38-3.05-1.22-3.11-1-3.17-.84-3.22-.66-3.24-.48-3.27-.28-3.28-.09"/><path id="path9" class="cls-2" d="M298.81,526.46l-2-2.48-1.9-2.59-1.74-2.7-1.58-2.8L290.14,513l-1.24-3-1.06-3-.88-3.09-.69-3.13-.5-3.17-.31-3.2-.12-3.21H233.86l-.1,3.28-.28,3.27L233,501l-.66,3.21-.85,3.17-1,3.11-1.21,3-1.39,3-1.56,2.89-1.73,2.79-1.88,2.68-2,2.57-2.18,2.45-2.32,2.32-2.45,2.19-2.57,2-2.68,1.89-2.79,1.72-2.89,1.56-3,1.39-3.05,1.21-3.11,1-3.17.85-3.22.66-3.24.47-3.27.28-3.28.1-3.28-.1-3.27-.28-3.24-.47-3.22-.66-3.16-.85-3.12-1L155.13,543l-3-1.39-2.88-1.56-2.79-1.72-2.69-1.89-2.57-2-2.45-2.19-2.32-2.32-2.18-2.45-2-2.57-1.88-2.68-1.73-2.79-1.56-2.89-1.38-3-1.22-3-1-3.11-.84-3.17-.67-3.22-.47-3.24-.28-3.27-.09-3.28H69.5l-.1,3.24-.3,3.23-.49,3.2-.69,3.16L67,507.17,66,510.23l-1.26,3-1.43,2.91-1.61,2.81-1.77,2.71L58,524.25l-2.08,2.48-2.1,2.47-2,2.51-2,2.55-2,2.59-1.89,2.62-1.85,2.67-1.78,2.7-1.74,2.74-1.68,2.77-1.62,2.8L35.66,556l-1.5,2.87-1.45,2.9-1.4,2.92-1.33,3-1.27,3-1.21,3-1.15,3-1.09,3.05-1,3.08-1,3.09-.9,3.11-.84,3.13-.77,3.15-.71,3.16-.65,3.18-.58,3.18-.51,3.2-.45,3.21-.39,3.22-.32,3.22-.26,3.23-.19,3.24-.13,3.23-.06,3.24v3.24l.06,3.24.13,3.24.19,3.24.25,3.23.32,3.22.38,3.22,0,.18.7,3.24,1.24,3.07,1.74,2.83,2.18,2.5,2.54,2.12,2.85,1.7,3.07,1.24,3.23.76,3.31.25H316.06l3.26-.24,3.17-.74,3-1.21,2.81-1.66,2.53-2.06,2.17-2.43,1.76-2.75,1.3-3,.79-3.16.43-3.24.36-3.25.29-3.25.22-3.25.15-3.26.09-3.27v-3.26l-.06-3.27-.11-3.26-.19-3.26-.25-3.25-.32-3.25-.38-3.25-.45-3.23-.51-3.22-.58-3.22-.64-3.2-.71-3.18-.78-3.18-.84-3.15-.9-3.14-1-3.12-1-3.09-1.09-3.08-1.16-3.05-1.22-3-1.28-3-1.34-3-1.4-2.95-1.47-2.92-1.52-2.88-1.58-2.86L316,550.22l-1.7-2.79-1.75-2.75-1.8-2.72-1.87-2.68L307,536.63l-2-2.6-2-2.57-2.07-2.52-2.12-2.48"/><path id="path11" class="cls-3" d="M337.1,329.25l-.44-3.22-.51-3.21-.58-3.19-.64-3.19-.7-3.17-.78-3.15-.83-3.14-.91-3.12-1-3.1-1-3.08-1.1-3.05-1.15-3-1.22-3-1.28-3-1.34-3-1.4-2.93-1.46-2.9-1.52-2.87-1.57-2.84-1.63-2.81-1.69-2.77-1.75-2.74-1.8-2.7L309,257.41l-1.91-2.63-2-2.59-2-2.55L301,247.13l-2.1-2.47-2.16-2.43-2.21-2.38-2.25-2.34-2.3-2.29L287.65,233l-2.39-2.2-2.43-2.15-2.47-2.1-2.58-2-2.52-2-2.56-1.93-2.6-1.88L267.47,217l-2.67-1.78-2.7-1.72-2.74-1.67-2.77-1.61-2.79-1.56L251,207.1l-2.86-1.44-2.89-1.39-2.92-1.33-2.94-1.27-3-1.22-3-1.15-3-1.09-3-1-3.06-1-3.07-.91-3.09-.84-3.11-.78-3.12-.71-3.14-.65-3.15-.59-3.16-.52-3.17-.46-3.19-.39-3.24-.33-3.24-.27-3.26-.2-3.25-.14-3.26-.08h-3.26l-3.25,0-3.26.12-3.25.18-3.25.25-3.24.32-3.24.38-3.23.44-3.21.52-3.21.58-3.19.64-3.18.71-3.17.77-3.15.84-3.13.9-3.11,1-3.09,1-3.07,1.09-3,1.16-3,1.22-3,1.28-3,1.33-2.94,1.4L104.47,207l-2.89,1.52-2.85,1.57-2.82,1.63-2.79,1.69-2.75,1.75-2.72,1.79L85,218.78l-2.64,1.9-2.6,2-2.57,2-2.65,1.9L72,228.68l-2.46,2.17-2.41,2.23-2.37,2.27-2.32,2.32L60.18,240,58,242.46l-2.18,2.45-2.12,2.51L51.58,250l-2,2.59-2,2.62-1.92,2.67-1.86,2.71L42,263.29l-1.75,2.78-1.69,2.81-1.64,2.85-1.57,2.88-1.52,2.91-1.45,2.94-1.4,3-1.33,3-1.27,3-1.21,3.06L26,295.58,25,298.68l-1,3.12-1,3.14-.89,3.16-.82,3.17-.76,3.2-.7,3.21-.62,3.22-.57,3.23-.49,3.25-.43,3.25-.37,3.26L17,337.16l-.23,3.27-.17,3.28-.1,3.28,0,3.29,0,3.27.1,3.27.17,3.27.22,3.27.3,3.26.36,3.25.43,3.25.49,3.23.56,3.23.63,3.21.69,3.2.76,3.19.82,3.17L23,395.5l.95,3.13,1,3.11L26,404.83l1.15,3.07,1.2,3.05,1.27,3L31,417l1.39,3,1.44,2.94,1.51,2.9,1.57,2.88,1.63,2.84,1.68,2.81,1.75,2.77,1.79,2.73,1.85,2.7,1.91,2.67,2,2.62,2,2.58,2.07,2.54,2.11,2.5,2.11,2.5,2,2.62,1.8,2.73,1.64,2.84L64.6,469l1.28,3,1.1,3.08.9,3.15.71,3.2.5,3.23L69.4,488l.1,3.27h51.59l.09-3.28.28-3.27.47-3.24.67-3.21.84-3.17,1-3.12,1.22-3.05,1.38-3,1.56-2.88,1.73-2.79,1.88-2.69,2-2.57,2.18-2.45,2.32-2.32,2.45-2.18,2.57-2,2.69-1.88,2.79-1.73,2.88-1.56,3-1.38,3.05-1.22,3.12-1,3.16-.84,3.22-.66,3.24-.48,3.27-.28,3.28-.09,3.28.09,3.27.28,3.24.48,3.22.66,3.17.84,3.11,1,3.05,1.22,3,1.38,2.89,1.56,2.79,1.73,2.68,1.88,2.57,2,2.45,2.18,2.32,2.32,2.18,2.45,2,2.57,1.88,2.69,1.73,2.79,1.56,2.88,1.39,3,1.21,3.05,1,3.12.85,3.17.66,3.21.47,3.24.28,3.27.1,3.28h51.49l.08-3.24.28-3.23.48-3.2.69-3.17.87-3.12,1.07-3.06,1.27-3,1.44-2.9,1.63-2.8,1.79-2.7,2-2.58,2.1-2.47,2.1-2.47,2.05-2.51,2-2.55,1.95-2.59L309,443l1.85-2.66,1.79-2.7,1.73-2.74,1.68-2.77,1.63-2.81,1.57-2.84,1.51-2.86,1.45-2.9,1.39-2.93,1.33-2.95,1.28-3,1.21-3,1.15-3,1.09-3.06,1-3.07,1-3.1.9-3.11.84-3.13.77-3.15.71-3.16.65-3.18.58-3.19.51-3.2.45-3.21.39-3.22.32-3.22.26-3.23.19-3.24.13-3.24.07-3.24v-3.24l-.06-3.24-.13-3.24-.19-3.24-.25-3.23-.32-3.22-.37-3.22"/><path id="path13" class="cls-3" d="M229,151.91l.1-3.23v-3.23l-.12-3.23-.24-3.22-.37-3.2-.51-3.19-.68-3.16-.86-3.11-1.06-3-1.3-3-1.48-2.87-1.64-2.78L219,112l-1.93-2.59-2-2.5-2.13-2.43-2.19-2.38-2.19-2.37-2.13-2.43-1.95-2.57-1.62-2.79-1.21-3L201,85.79l-.18-3.22.11-3.23.15-3.23.05-3.23.14-3.22.28-3.22.37-3.21.42-3.2.44-3.2.41-3.2.35-3.21.16-3.23L203.48,44l-.57-3.11-.94-3L200.67,35,199,32.31l-1.95-2.49-2.24-2.23-2.49-2L189.65,24l-2.89-1.3-3-.94-3.11-.57L177.47,21l-3.27.2-3.22.61-3.12,1-3,1.39L162.12,26l-2.53,2.08-2.25,2.39-1.94,2.64L153.81,36l-1.22,3-.83,3.17-.42,3.25,0,3.28L151.6,52l.39,3.25.44,3.26.44,3.25.4,3.25.33,3.27.21,3.27.06,3.28.12,3.28.15,3.27,0,3.28-.49,3.24L152.55,91,151,93.87l-1.9,2.67L147,99l-2.22,2.42-2.23,2.41-2.18,2.45-2.1,2.52-2,2.61-1.84,2.71-1.7,2.81-1.52,2.91-1.35,3L128.77,126l-.89,3.15-.71,3.21-.53,3.23-.39,3.26-.25,3.27-.13,3.28v3.28l.1,3.28-2.9,1.75-1.66,3V160l1.68,2.94,2.66,2H229.2l2.65-2,1.68-2.94v-3.38l-1.66-3-2.9-1.75"/></g><g id="edits"><circle class="cls-4" cx="247.46" cy="165.09" r="13.21"/><circle class="cls-4" cx="107.48" cy="165.09" r="13.21"/><circle class="cls-4" cx="38.73" cy="671.09" r="13.21"/><circle class="cls-4" cx="316.06" cy="671.09" r="13.21"/><g id="edit_309" data-name="edit 309"><line class="cls-5" x1="69.5" y1="491.22" x2="69.5" y2="403.71"/><polygon class="cls-6" points="80.23 406.85 69.5 388.27 58.77 406.85 80.23 406.85"/></g><circle id="handle_before_309" data-name="handle before 309" class="cls-7" cx="69.5" cy="491.22" r="13.21" transform="translate(-423.76 544.34) rotate(-88.09)"/><circle id="handle_after_309" data-name="handle after 309" class="cls-7" cx="69.5" cy="375.04" r="13.21"/><g id="edit_185" data-name="edit 185"><line class="cls-5" x1="121.09" y1="491.22" x2="121.09" y2="403.69"/><polygon class="cls-6" points="131.82 406.83 121.09 388.25 110.36 406.83 131.82 406.83"/></g><circle id="handle_before_185" data-name="handle before 185" class="cls-7" cx="121.09" cy="491.22" r="13.21"/><circle id="handle_after_185" data-name="handle after 185" class="cls-7" cx="121.09" cy="375.01" r="13.21"/><g id="edit_239" data-name="edit 239"><line class="cls-5" x1="233.86" y1="491.22" x2="233.86" y2="403.69"/><polygon class="cls-6" points="244.59 406.83 233.85 388.25 223.12 406.83 244.59 406.83"/></g><circle id="handle_before_239" data-name="handle before 239" class="cls-7" cx="233.86" cy="491.22" r="13.21"/><circle id="handle_after_239" data-name="handle after 239" class="cls-7" cx="233.86" cy="375.01" r="13.21"/><g id="edit_278" data-name="edit 278"><line class="cls-5" x1="285.34" y1="491.22" x2="285.35" y2="403.71"/><polygon class="cls-6" points="296.08 406.85 285.35 388.27 274.62 406.85 296.08 406.85"/></g><circle id="handle_before_278" data-name="handle before 278" class="cls-7" cx="285.34" cy="491.22" r="13.21"/><circle id="handle_after_278" data-name="handle after 278" class="cls-7" cx="285.35" cy="375.04" r="13.21"/></g><g id="model-2" data-name="model"><path id="path5-2" data-name="path5" class="cls-1" d="M623.88,180.63l3,.36,3,.43,3,.49,3,.55,3,.61,2.93.67,2.92.73,2.91.8,2.89.85,2.87.91,2.85,1,2.84,1,2.81,1.09,2.79,1.14,2.77,1.2L670,193.7l2.72,1.31,2.7,1.36,2.66,1.42,2.64,1.47,2.61,1.52,2.58,1.57,2.55,1.62,2.51,1.68,2.49,1.72,2.45,1.77,2.41,1.82,2.38,1.86V193.88l-.12-2.46-.36-2.46-.61-2.43-.85-2.38-1.09-2.3-1.33-2.21-1.55-2.08-1.75-1.94-2-1.77L689,172.27l-2.29-1.38-2.42-1.15-2.54-.9-2.62-.66-2.67-.39-3.3-.16H539.75l-3.3.16-2.67.39-2.62.66-2.53.9-2.43,1.15-2.29,1.38-2.13,1.58-1.95,1.77-1.75,1.93-1.55,2.08-1.32,2.21-1.1,2.3-.85,2.38-.6,2.43-.36,2.45-.12,2.46v19l2.42-1.89,2.45-1.84,2.49-1.79,2.52-1.75,2.56-1.69,2.59-1.64,2.62-1.59,2.66-1.54,2.68-1.48,2.71-1.42,2.74-1.38,2.77-1.31,2.79-1.26,2.82-1.2,2.84-1.14,2.86-1.09,2.88-1,2.91-1,2.92-.91,2.94-.85,2.95-.79,3-.72,3-.67,3-.6,3-.55,3-.48,3-.42,3-.35,3-.3,3-.23,3.05-.18,3-.11,3.06,0h3l3.06.08,3,.13,3,.19,3.05.25,3,.32"/><path id="path857-2" data-name="path857" class="cls-1" d="M606.45,321.33l-3.28.09-3.27.28-3.25.47-3.21.66-3.17.85-3.11,1-3,1.21-3,1.39-2.89,1.56-2.79,1.73-2.69,1.88-2.57,2-2.45,2.18L565.43,339l-2.18,2.45-2,2.57-1.89,2.68-1.72,2.79-1.56,2.89-1.39,3-1.21,3.05-1,3.11-.85,3.17-.66,3.22-.47,3.24-.28,3.27-.1,3.28.1,3.28.28,3.27.47,3.24.66,3.22.85,3.17,1,3.11,1.21,3.05,1.39,3,1.56,2.89,1.72,2.79,1.89,2.68,2,2.57,2.18,2.45,2.32,2.32,2.45,2.18,2.57,2,2.69,1.88,2.79,1.73,2.89,1.56,3,1.39,3,1.21,3.11,1,3.17.85,3.21.66,3.25.47,3.27.28,3.28.09,3.27-.09,3.27-.28,3.25-.47,3.21-.66,3.17-.85,3.11-1,3-1.21,3-1.39,2.88-1.56,2.79-1.73,2.69-1.88,2.57-2,2.45-2.18,2.32-2.32,2.18-2.45,2-2.57,1.88-2.68,1.72-2.79,1.56-2.89,1.39-3,1.21-3.05,1-3.11.85-3.17.66-3.22.47-3.24.29-3.27.09-3.28-.09-3.28-.29-3.27-.47-3.24-.66-3.22-.85-3.17-1-3.11-1.21-3.05-1.39-3-1.56-2.89-1.72-2.79L651.68,344l-2-2.57L647.46,339l-2.32-2.32-2.45-2.18-2.57-2-2.69-1.88-2.79-1.73-2.88-1.56-3-1.39-3-1.21-3.12-1-3.17-.85-3.21-.66L613,321.7l-3.27-.28-3.27-.09"/><path id="path9-2" data-name="path9" class="cls-2" d="M733.06,427.08l-2.82-3.43-2.62-3.58-2.41-3.75-2.2-3.88-2-4-1.73-4.14L717.83,400l-1.24-4.35-1-4.42-.7-4.48-.44-4.52-.16-4.55H662.83l-.09,3.28-.29,3.27L662,387.5l-.66,3.22-.85,3.17-1,3.11-1.21,3.05-1.39,3-1.56,2.89-1.72,2.79-1.88,2.68-2,2.57-2.18,2.45-2.32,2.32-2.45,2.18-2.57,2-2.69,1.88-2.79,1.73-2.88,1.56-3,1.39-3,1.21-3.11,1-3.17.85-3.21.66-3.25.47-3.27.28-3.27.09-3.28-.09-3.27-.28-3.25-.47-3.21-.66-3.17-.85-3.11-1-3-1.21-3-1.39-2.89-1.56-2.79-1.73-2.69-1.88-2.57-2-2.45-2.18-2.32-2.32L563.25,414l-2-2.57-1.89-2.68-1.72-2.79L556.05,403l-1.39-3L553.45,397l-1-3.11-.85-3.17-.66-3.22-.47-3.24-.28-3.27-.1-3.28H498.47l-.14,4.6-.42,4.59-.7,4.54-1,4.48-1.24,4.4-1.51,4.3-1.76,4.19-2,4.07-2.24,3.92L485,420.58l-2.68,3.62-2.88,3.46-2.92,3.42-2.84,3.49-2.79,3.55-2.71,3.61-2.65,3.68L463,449.15,460.44,453,458,456.85l-2.39,3.95-2.33,4L451,468.94l-2.19,4.18-2.13,4.26-2.07,4.34-2,4.43-1.92,4.5-1.85,4.59-1.77,4.68-1.69,4.77-1.62,4.85-1.53,4.93-1.46,5-1.36,5.11-1.27,5.19L427,535.09l-1.08,5.36-1,5.46-.89,5.53-.79,5.61-.68,5.7-.58,5.77-.46,5.84-.35,5.92-.23,6-.12,6.05v6.12l.12,6.17.25,6.24.37,6.28.5,6.34.62,6.38.76,6.42,0,.37,1.45,6.67,2.58,6.39,3.64,5.9,4.58,5.26,5.4,4.49,6.06,3.62,6.56,2.65,6.9,1.62,7.08.55H745l6.92-.53,6.76-1.57,6.43-2.57,5.94-3.49,5.31-4.35L781,656.2l3.65-5.69,2.67-6.16,1.62-6.45.87-6.54.72-6.5.58-6.45.44-6.4.3-6.34.16-6.28,0-6.22-.1-6.15-.22-6.08-.34-6-.45-5.93-.57-5.85-.68-5.77-.78-5.69-.89-5.6-1-5.52-1.09-5.43-1.19-5.34-1.28-5.25L782,519.39l-1.46-5.07-1.54-5-1.63-4.89-1.7-4.8-1.79-4.71-1.86-4.63-1.93-4.53-2-4.45L766,477l-2.14-4.28-2.21-4.21-2.28-4.12-2.34-4-2.41-4-2.47-3.9-2.54-3.82-2.6-3.76-2.67-3.68-2.73-3.62L738.86,434,736,430.51l-2.93-3.43"/><path id="path11-2" data-name="path11" class="cls-3" d="M743.35,285.28l-.27-2-.31-2-.36-2-.4-2-.44-2-.49-2-.54-2-.58-2-.62-2-.67-2-.72-2-.77-2-.81-2-.86-2-.91-2-1-2-1-2-1.06-2-1.1-2-1.15-2-1.2-2-1.25-2-1.3-1.95-1.34-1.93-1.39-1.92-1.44-1.9-1.49-1.89L718.39,230l-1.58-1.84-1.62-1.82-1.66-1.8-1.71-1.77L710.07,221l-1.78-1.71-1.83-1.68-1.86-1.65-1.89-1.61-2-1.51L698.35,211l-2.41-1.82-2.45-1.77L691,205.65,688.49,204l-2.55-1.62-2.58-1.57-2.61-1.52-2.64-1.47-2.66-1.42-2.7-1.36L670,193.7l-2.74-1.25-2.77-1.2-2.79-1.14L658.92,189l-2.84-1-2.85-1-2.87-.91-2.89-.85-2.91-.8-2.92-.73-2.93-.67-3-.61-3-.55-3-.49-3-.43-3-.36-3-.32-3.05-.25-3-.19-3-.13-3.06-.08h-3l-3.06,0-3,.11-3.05.18-3,.23-3,.3-3,.35-3,.42-3,.48-3,.55-3,.6-3,.67-3,.72-2.95.79-2.94.85-2.92.91-2.91,1-2.88,1-2.86,1.09L549,191.08l-2.82,1.2-2.79,1.26-2.77,1.31-2.74,1.38-2.71,1.42-2.68,1.48-2.66,1.54-2.62,1.59-2.59,1.64-2.56,1.69-2.52,1.75L517,209.13,514.59,211l-2.42,1.89-2,1.46L508.22,216l-1.88,1.67-1.84,1.7-1.81,1.73-1.76,1.77-1.72,1.79-1.68,1.82-1.63,1.85-1.59,1.87L492.77,232l-1.5,1.91-1.44,1.93-1.4,2-1.35,2-1.3,2-1.25,2-1.2,2-1.15,2-1.1,2-1.05,2-1,2-.95,2-.9,2-.86,2-.8,2-.76,2-.71,2-.67,2-.62,2-.57,2-.52,2-.48,2-.44,2-.39,2-.35,2-.31,2-.26,2-.22,2-.18,2-.14,2-.1,2-.06,2,0,1.94,0,1.93.06,1.92.1,1.91.13,1.9.17,1.89.21,1.88.25,1.87.28,1.86.32,1.85.36,1.83.39,1.83.43,1.81.47,1.8.5,1.78.54,1.77.57,1.76.61,1.74.64,1.72.68,1.71.71,1.7.74,1.68.78,1.66.81,1.64.85,1.63.87,1.6.91,1.59.94,1.57,1,1.55,1,1.53,1,1.51,1.07,1.48,1.09,1.47,1.13,1.44,1.15,1.42,1.19,1.4,1.18,1.4,1.1,1.47,1,1.53.92,1.59.82,1.64.72,1.69.61,1.74.51,1.77.4,1.8.28,1.82.18,1.84.05,1.85h51.59l.1-3.28.28-3.27.47-3.24.66-3.22.85-3.17,1-3.11,1.21-3.05,1.39-3,1.56-2.89,1.72-2.79,1.89-2.68,2-2.57,2.18-2.45,2.32-2.32,2.45-2.18,2.57-2,2.69-1.88,2.79-1.73,2.89-1.56,3-1.39,3-1.21,3.11-1,3.17-.85,3.21-.66,3.25-.47,3.27-.28,3.28-.09,3.27.09,3.27.28,3.25.47,3.21.66,3.17.85,3.11,1,3,1.21,3,1.39,2.88,1.56,2.79,1.73,2.69,1.88,2.57,2,2.45,2.18,2.32,2.32,2.18,2.45,2,2.57,1.88,2.68,1.72,2.79,1.56,2.89,1.39,3,1.21,3.05,1,3.11.85,3.17.66,3.22.47,3.24.29,3.27.09,3.28h51.49l0-1.83.16-1.83.27-1.81.38-1.78.5-1.76.6-1.73.71-1.68.82-1.63.91-1.57,1-1.52,1.1-1.45,1.18-1.38,1.18-1.38,1.14-1.4,1.12-1.43,1.09-1.45,1.07-1.47,1-1.49,1-1.51,1-1.53.94-1.55.91-1.57.87-1.59.85-1.6.81-1.63.78-1.64.75-1.66.71-1.67.69-1.69.64-1.71.62-1.72.58-1.73.54-1.75.51-1.76.47-1.78.44-1.78.41-1.8.37-1.82.33-1.82.29-1.84.26-1.84.23-1.86.18-1.86.15-1.88.11-1.89.08-1.89,0-1.91v-1.91l0-1.92-.08-1.93-.11-1.94-.15-1.95-.2-1.95-.23-2"/><path id="path13-2" data-name="path13" class="cls-3" d="M658,154.61l.1-3.23v-3.23l-.12-3.23-.25-3.22-.37-3.21-.51-3.18-.67-3.16-.86-3.12-1.07-3-1.3-3-1.47-2.87-1.64-2.78L648,114.69l-1.92-2.6-2.05-2.5-2.13-2.42-2.18-2.38-2.19-2.37L635.4,100l-2-2.57-1.62-2.79-1.21-3-.68-3.15-.18-3.23.11-3.22.15-3.23.06-3.23.14-3.23.28-3.21.37-3.21.41-3.2.44-3.2.42-3.21.34-3.21.17-3.22-.19-3.16-.57-3.11-.94-3-1.3-2.88L628,35l-2-2.49-2.24-2.24-2.48-2-2.71-1.64-2.88-1.3-3-.94-3.12-.56-3.15-.19-3.28.2-3.22.61-3.12,1-3,1.39-2.77,1.75-2.53,2.09-2.25,2.38-1.94,2.65-1.6,2.86-1.22,3-.82,3.18-.43,3.25v3.28l.27,3.26.4,3.26.44,3.25.43,3.25.4,3.26.34,3.26.21,3.28.05,3.28.13,3.27.15,3.28,0,3.28-.5,3.24-1.06,3.1L580,96.56l-1.89,2.68-2.13,2.5-2.22,2.41-2.22,2.41L569.36,109l-2.1,2.52-2,2.62-1.85,2.71-1.69,2.81-1.53,2.9-1.35,3-1.11,3.09-.9,3.15-.7,3.21-.54,3.23-.38,3.26-.25,3.27-.13,3.28,0,3.28.1,3.28L552,156.36l-1.67,2.94,0,3.39,1.67,2.94,2.66,2H658.17l2.66-2,1.67-2.94,0-3.39-1.67-2.94Z"/></g><g id="edits-2" data-name="edits"><circle class="cls-4" cx="676.44" cy="167.79" r="13.21"/><circle class="cls-4" cx="536.45" cy="167.79" r="13.21"/><circle class="cls-4" cx="467.7" cy="673.79" r="13.21"/><circle class="cls-4" cx="745.04" cy="673.79" r="13.21"/><circle id="handle_before_309-2" data-name="handle before 309" class="cls-7" cx="498.47" cy="377.71" r="7.8"/><circle id="handle_after_309-2" data-name="handle after 309" class="cls-7" cx="498.47" cy="377.71" r="13.21"/><circle id="handle_before_185-2" data-name="handle before 185" class="cls-7" cx="550.06" cy="377.71" r="7.8"/><circle id="handle_after_185-2" data-name="handle after 185" class="cls-7" cx="550.06" cy="377.71" r="13.21"/><circle id="handle_before_239-2" data-name="handle before 239" class="cls-7" cx="662.83" cy="377.71" r="7.8"/><circle id="handle_after_239-2" data-name="handle after 239" class="cls-7" cx="662.83" cy="377.71" r="13.21"/><circle id="handle_before_278-2" data-name="handle before 278" class="cls-7" cx="714.32" cy="377.71" r="7.8"/><circle id="handle_after_278-2" data-name="handle after 278" class="cls-7" cx="714.32" cy="377.71" r="13.21"/></g></svg>