<?xml version="1.0" encoding="UTF-8" standalone="no"?>
<svg
   viewBox="0 0 24 24"
   width="24"
   height="24"
   version="1.1"
   id="svg2224"
   sodipodi:docname="icon_linkedin.svg"
   inkscape:version="1.2 (dc2aedaf03, 2022-05-15)"
   xmlns:inkscape="http://www.inkscape.org/namespaces/inkscape"
   xmlns:sodipodi="http://sodipodi.sourceforge.net/DTD/sodipodi-0.dtd"
   xmlns="http://www.w3.org/2000/svg"
   xmlns:svg="http://www.w3.org/2000/svg">
  <defs
     id="defs2228" />
  <sodipodi:namedview
     id="namedview2226"
     pagecolor="#ffffff"
     bordercolor="#000000"
     borderopacity="0.25"
     inkscape:showpageshadow="2"
     inkscape:pageopacity="0.0"
     inkscape:pagecheckerboard="0"
     inkscape:deskcolor="#d1d1d1"
     showgrid="false"
     inkscape:zoom="34.233333"
     inkscape:cx="11.991237"
     inkscape:cy="11.976631"
     inkscape:window-width="2560"
     inkscape:window-height="1377"
     inkscape:window-x="-8"
     inkscape:window-y="-8"
     inkscape:window-maximized="1"
     inkscape:current-layer="svg2224" />
  <path
     d="M 12,0 C 5.373,0 0,5.373 0,12 0,18.627 5.373,24 12,24 18.627,24 24,18.627 24,12 24,5.373 18.627,0 12,0 Z"
     id="path2222"
     style="fill:#424242;fill-opacity:1"
     sodipodi:nodetypes="sssss" />
  <path
     d="m 7.477986,5.6318793 c 0.842,0 1.403,0.5610004 1.403,1.3090004 0,0.7480003 -0.561,1.3090003 -1.496,1.3090003 -0.8419993,0.001 -1.4029993,-0.561 -1.4029993,-1.3090003 0,-0.748 0.561,-1.3090004 1.4959993,-1.3090004 z m 1.504,11.5970007 H 5.9819867 v -8 H 8.981986 Z m 10,0 h -2.824 v -4.372 c 0,-1.209 -0.753,-1.488 -1.035,-1.488 -0.282,0 -1.224,0.186 -1.224,1.488 v 4.372 h -2.917 v -8 h 2.918 v 1.116 c 0.376,-0.651 1.129,-1.116 2.541,-1.116 1.412,0 2.541,1.116 2.541,3.628 z"
     style="fill:#ffffff;fill-opacity:1"
     id="path3444" />
</svg>
