<?xml version="1.0" encoding="UTF-8" standalone="no"?>
<svg
   viewBox="0 0 24 24"
   width="24"
   height="24"
   version="1.1"
   id="svg4"
   sodipodi:docname="icon_email_orig.svg"
   inkscape:version="1.2 (dc2aedaf03, 2022-05-15)"
   xmlns:inkscape="http://www.inkscape.org/namespaces/inkscape"
   xmlns:sodipodi="http://sodipodi.sourceforge.net/DTD/sodipodi-0.dtd"
   xmlns="http://www.w3.org/2000/svg"
   xmlns:svg="http://www.w3.org/2000/svg">
  <defs
     id="defs8" />
  <sodipodi:namedview
     id="namedview6"
     pagecolor="#ffffff"
     bordercolor="#000000"
     borderopacity="0.25"
     inkscape:showpageshadow="2"
     inkscape:pageopacity="0.0"
     inkscape:pagecheckerboard="0"
     inkscape:deskcolor="#d1d1d1"
     showgrid="false"
     inkscape:zoom="17.116667"
     inkscape:cx="-4.6738071"
     inkscape:cy="18.812074"
     inkscape:window-width="1707"
     inkscape:window-height="897"
     inkscape:window-x="-8"
     inkscape:window-y="-8"
     inkscape:window-maximized="1"
     inkscape:current-layer="svg4" />
  <path
     d="M 12,0 C 5.373,0 0,5.373 0,12 0,18.627 5.373,24 12,24 18.627,24 24,18.627 24,12 24,5.373 18.627,0 12,0 Z"
     id="path2"
     sodipodi:nodetypes="sssss"
     style="fill:#d3d3d3;fill-opacity:1" />
  <path
     d="m 18.186589,7.8504565 c -0.01554,0.053481 -0.04714,0.1008876 -0.09054,0.135803 L 13.720187,12.89025 c -0.438751,0.488248 -1.06375,0.767853 -1.72017,0.769548 -0.657241,0.0021 -1.283741,-0.278122 -1.720169,-0.769548 L 5.8285346,7.9108135 5.7983561,7.880635 C 5.6583851,8.1127898 5.5852794,8.379104 5.5871073,8.6501839 v 6.7599601 c 0.00329,0.829541 0.6793877,1.498846 1.5089199,1.493831 h 9.8079798 c 0.829532,0.005 1.505596,-0.66429 1.508919,-1.493831 V 8.6501839 C 18.411692,8.3679721 18.333451,8.0914493 18.186589,7.8504565 M 6.5226374,7.231799 10.989041,12.226325 c 0.256641,0.288672 0.624717,0.453482 1.010976,0.452676 0.385605,-0.0022 0.752496,-0.166522 1.010976,-0.452676 L 17.40195,7.3072452 c 0.02921,-0.042609 0.07163,-0.07442 0.120714,-0.090535 C 17.331221,7.1376638 17.126216,7.0966623 16.919095,7.0959969 H 7.0809381 C 6.8786957,7.0966301 6.6786183,7.137672 6.492459,7.21671 6.500609,7.2249 6.511202,7.230201 6.5226374,7.231799 Z"
     style="fill:#3a3a3a;fill-opacity:1;stroke-width:0.150893"
     id="path26085" />
</svg>
