<?xml version="1.0" encoding="UTF-8" standalone="no"?>
<svg
   viewBox="0 0 24 24"
   width="24"
   height="24"
   version="1.1"
   id="svg4"
   sodipodi:docname="icon_scholar_orig.svg"
   inkscape:version="1.2 (dc2aedaf03, 2022-05-15)"
   xmlns:inkscape="http://www.inkscape.org/namespaces/inkscape"
   xmlns:sodipodi="http://sodipodi.sourceforge.net/DTD/sodipodi-0.dtd"
   xmlns="http://www.w3.org/2000/svg"
   xmlns:svg="http://www.w3.org/2000/svg">
  <defs
     id="defs8" />
  <sodipodi:namedview
     id="namedview6"
     pagecolor="#ffffff"
     bordercolor="#000000"
     borderopacity="0.25"
     inkscape:showpageshadow="2"
     inkscape:pageopacity="0.0"
     inkscape:pagecheckerboard="0"
     inkscape:deskcolor="#d1d1d1"
     showgrid="false"
     inkscape:zoom="17.116667"
     inkscape:cx="-2.6290165"
     inkscape:cy="18.812074"
     inkscape:window-width="1707"
     inkscape:window-height="897"
     inkscape:window-x="-8"
     inkscape:window-y="-8"
     inkscape:window-maximized="1"
     inkscape:current-layer="svg4" />
  <path
     d="M 12,0 C 5.373,0 0,5.373 0,12 0,18.627 5.373,24 12,24 18.627,24 24,18.627 24,12 24,5.373 18.627,0 12,0 Z"
     id="path2"
     sodipodi:nodetypes="sssss"
     style="fill:#d4d4d4;fill-opacity:1" />
  <path
     d="m 10.089524,4.5418077 h 8.347487 l -0.771369,0.6022406 v 1.0627928 c 0.286425,0.036779 0.256117,0.2088831 0.256117,0.4148181 v 5.0215358 c 0,0.232554 -0.190237,0.422867 -0.422776,0.422867 h -0.155682 c -0.232554,0 -0.422867,-0.190329 -0.422867,-0.422867 V 6.6216592 c 0,-0.20643 -0.02997,-0.3787175 0.258586,-0.4150008 V 5.5385593 l -2.22099,1.8214479 c 0.02566,0.04757 0.05001,0.078094 0.07318,0.1179966 0.195145,0.3455019 0.294535,0.7750449 0.294535,1.3000669 0,0.402446 -0.06706,0.764076 -0.203064,1.083283 -0.135385,0.3192763 -0.300039,0.5800013 -0.492111,0.7808823 -0.19207,0.201582 -0.384752,0.385721 -0.577452,0.551566 -0.192635,0.166169 -0.357289,0.33938 -0.49211,0.519276 -0.13588,0.179283 -0.203612,0.364709 -0.203612,0.55678 0,0.192396 0.08785,0.387815 0.262885,0.58477 0.174399,0.197568 0.38896,0.38901 0.642671,0.578092 0.254272,0.18782 0.507964,0.396336 0.761673,0.623187 0.254257,0.226476 0.467721,0.518021 0.642121,0.872077 0.175645,0.355236 0.263434,0.74639 0.263434,1.176309 0,0.567111 -0.144599,1.079307 -0.43302,1.535145 -0.289054,0.453959 -0.665904,0.816243 -1.128743,1.081819 -0.464068,0.267387 -0.96041,0.468624 -1.489686,0.604619 -0.53052,0.134754 -1.056782,0.202424 -1.582436,0.202424 -0.331773,0 -0.666554,-0.02564 -1.003245,-0.07802 -0.3377675,-0.05245 -0.6761835,-0.145101 -1.0170595,-0.2756 -0.341489,-0.131439 -0.644,-0.292742 -0.906196,-0.486623 -0.262828,-0.191764 -0.474408,-0.439372 -0.636633,-0.740908 -0.162225,-0.301534 -0.242762,-0.640606 -0.242762,-1.01715 0,-0.446721 0.1244319,-0.861036 0.373839,-1.24738 0.24939,-0.383527 0.579898,-0.703687 0.990898,-0.957328 0.717162,-0.446106 1.8422355,-0.721754 3.3734245,-0.825977 -0.349994,-0.437551 -0.525589,-0.849535 -0.525589,-1.234941 0,-0.219304 0.05722,-0.45427 0.170684,-0.70798 -0.182953,0.02562 -0.371318,0.03997 -0.563457,0.03997 -0.822512,0 -1.5171675,-0.267393 -2.0812235,-0.805853 -0.564056,-0.537571 -0.845735,-1.2104483 -0.845735,-2.0239613 0,-0.08505 0.0024,-0.160106 0.0085,-0.243037 H 5.0488703 Z m 1.469562,1.7952871 c -0.524477,0 -0.926908,0.1886921 -1.207408,0.5652867 -0.28043,0.3756046 -0.4207645,0.8305631 -0.4207645,1.3650112 0,0.455206 0.07684,0.918692 0.2305065,1.391263 0.153054,0.4723313 0.403756,0.8940143 0.754996,1.2656743 0.349992,0.372599 0.757375,0.558517 1.220213,0.558517 0.515906,0 0.918993,-0.172786 1.208048,-0.518544 0.28779,-0.345178 0.432289,-0.780863 0.432289,-1.3056473 0,-0.447027 -0.07617,-0.914972 -0.229225,-1.404344 C 13.39525,7.7643254 13.140996,7.3222169 12.786068,6.9286332 12.432371,6.5337344 12.022538,6.3370948 11.559086,6.3370948 Z m 0.86723,8.0589902 c -0.376287,0 -0.74647,0.03336 -1.109901,0.09979 -0.36343,0.06463 -0.722009,0.173743 -1.07569,0.327738 -0.3549285,0.153124 -0.6415255,0.378174 -0.8598225,0.675783 -0.219544,0.297232 -0.328744,0.647308 -0.328744,1.050078 0,0.383833 0.09644,0.726203 0.289138,1.024376 0.192138,0.296344 0.445752,0.528459 0.7610335,0.694626 0.315279,0.166477 0.64577,0.292055 0.990897,0.374662 0.345758,0.08204 0.69766,0.124765 1.056208,0.124765 0.709171,0 1.31955,-0.159753 1.831784,-0.479029 0.510971,-0.319208 0.767161,-0.812177 0.767161,-1.47752 0,-0.139942 -0.01953,-0.277813 -0.05799,-0.412257 -0.04021,-0.135997 -0.07979,-0.252391 -0.11882,-0.34905 -0.03904,-0.09485 -0.113416,-0.209216 -0.223188,-0.34091 -0.109158,-0.132003 -0.192749,-0.2296 -0.248891,-0.294534 -0.05732,-0.06707 -0.164483,-0.162839 -0.322523,-0.289413 -0.156622,-0.127092 -0.256659,-0.20632 -0.301212,-0.235627 h -9.4e-5 c -0.04392,-0.03079 -0.157906,-0.114061 -0.341458,-0.249165 -0.183533,-0.136323 -0.284112,-0.208596 -0.301852,-0.21715 -0.09635,-0.01736 -0.231639,-0.02717 -0.406037,-0.02717 z"
     id="path23688"
     style="stroke-width:0.0468328;fill:#3b3b3b;fill-opacity:1" />
</svg>
